<svg xmlns="http://www.w3.org/2000/svg" width="111.117" height="58.154" viewBox="0 0 111.117 58.154">
  <g id="Group_6" data-name="Group 6" transform="translate(-588.835 -401.421)">
    <path id="Path_2" data-name="Path 2" d="M688.415,407.964a1.834,1.834,0,0,0-1.024,3.352h0l-6.2,13.314,1.3-17.729h0a1.869,1.869,0,1,0-.767-.114h0L677.459,424.1,675.353,405h0a1.807,1.807,0,0,0,1.348-1.752,1.829,1.829,0,1,0-2.11,1.787h0l-1.7,18.6-4.933-16.8h0a1.819,1.819,0,1,0-.85.216c.026,0,.055,0,.08,0h0l2.126,17.576-7.165-12.788h0a1.829,1.829,0,1,0-1.128.39,1.862,1.862,0,0,0,.388-.042h0l6,17.994h0c1.369,4.185,13.543,4.261,15.369,0h0l5.42-18.584h0a1.535,1.535,0,0,0,.21.023,1.829,1.829,0,1,0,0-3.659Zm-13.467,24.145c-3.1,0-5.617-.935-5.617-2.088s2.515-1.7,5.617-1.7,5.288.542,5.288,1.7-2.186,2.088-5.288,2.088Z" transform="translate(-28.571)" fill="#1d1d1d"/>
    <path id="Path_3" data-name="Path 3" d="M700.567,469.712h1.81c1.1,0,1.484.247,1.484,1.209h0v11.838h0c0,.935-.385,1.292-1.484,1.292h-1.81v1.913h18.511V478.1h-1.75c0,3.875-1.535,5.913-4.118,5.913h-5.195v-6.3h1.019c1.677,0,2.633.743,2.633,2.116h0v1.1h2.008v-8.74h-2.008v.962h0c0,1.349-1.011,2.171-2.633,2.171h-1.019v-5.616h4.837c3.546,0,4.283,2.042,4.476,5.093h1.75v-7.174H700.567v2.081Z" transform="translate(-45.371 -26.886)" fill="#1d1d1d"/>
    <path id="Path_4" data-name="Path 4" d="M679,484.048h-4.387V471.035h0c0-.962.385-1.292,1.484-1.292h1.649V467.71H667.511v2.034h1.43c1.1,0,1.484.33,1.484,1.292h0V482.79h0c0,.935-.385,1.292-1.484,1.292h-1.43v1.96h17.348v-8.053H682.88c-.055,3.16-.033,6.059-3.88,6.059Z" transform="translate(-31.948 -26.918)" fill="#1d1d1d"/>
    <path id="Path_5" data-name="Path 5" d="M638.625,466.769a9.907,9.907,0,0,0-10.279,9.461c-.028,5.936,3.9,9.674,10.087,9.674,6.569,0,10.389-3.682,10.389-9.976,0-4.665-4.122-9.158-10.2-9.158Zm-.137,16.973c-3.3,0-5.195-2.949-5.195-7.649,0-4.59,1.978-6.96,5.359-6.96,3.244,0,5.14,2.425,5.14,7.152,0,4.617-1.924,7.457-5.3,7.457Z" transform="translate(-16.044 -26.536)" fill="#1d1d1d"/>
    <path id="Path_6" data-name="Path 6" d="M759.207,469.726h1.925v-2.06h-9.305v2.06h1.217a.55.55,0,0,1,.3.995h0l-2.587,2.967-2.054-2.511h0c-.456-.533-.38-1.446.457-1.446h0l.94-.006v-2.06H739.5v2.06h0c2.663.076,3.327.387,4.289,1.623h0l4.309,5.23-5.859,6.163h0c-1.044,1.182-1.145,1.288-2.739,1.288h0V486h9.282V484.03h-2.221a.744.744,0,0,1-.8-.835c0-.357.467-.77.66-1.017h0l3.272-3.7,3.271,3.9h0c.165.22.439.467.439.742a.942.942,0,0,1-.934.918h-1.84V486h10.5V484.03h0c-1.658,0-1.807-.078-3.295-1.9h0l-5.478-6.467,3.728-4.033h0c1.374-1.456,1.911-1.908,3.119-1.908Z" transform="translate(-61.18 -26.9)" fill="#1d1d1d"/>
    <path id="Path_7" data-name="Path 7" d="M607.936,480.72v.941h0c0,1.127-.657,1.7-1.207,1.7-.88,0-.934-1.071-.989-1.7h0V480.9h0a4.226,4.226,0,0,0-2.587-4.261c2.693-.631,4.481-2.241,4.481-4.467,0-2.886-1.978-4.535-5.5-4.535h-13.3v2.078h1.8c1.1,0,1.484.254,1.484,1.215h0v11.8h0c0,.935-.384,1.292-1.484,1.292h-1.8v1.949H599.2v-1.949h-1.429c-1.1,0-1.484-.357-1.484-1.292h0v-5.252h1.848a3.229,3.229,0,0,1,3.539,3.2h0l.165,2.412h0c.11,2.2,1.594,3.38,4.205,3.38,2.776,0,3.428-1.346,3.428-4.205h0V480.72Zm-8.435-5.63h-3.216V469.7h2.858c2.749,0,3.738.912,3.738,2.7,0,1.842-1.071,2.694-3.38,2.694Z" transform="translate(0 -26.888)" fill="#1d1d1d"/>
  </g>
</svg>
