<svg xmlns="http://www.w3.org/2000/svg" width="116.325" height="58.155" viewBox="0 0 116.325 58.155">
  <g id="Group_12" data-name="Group 12" transform="translate(-588.835 -403.584)">
    <path id="Path_8" data-name="Path 8" d="M641.8,475.559l-7.136-16.435-6.554,23.139h3.144l4.076-14.456,6.471,14.938,6.488-14.938,4.059,14.456h3.144l-6.538-23.139L641.8,475.559Z" transform="translate(-14.854 -21.007)" fill="#1d1d1d"/>
    <path id="Path_9" data-name="Path 9" d="M600.728,459.124h-.05a11.811,11.811,0,1,0,0,23.621h.05a11.284,11.284,0,0,0,8.467-3.61,11.77,11.77,0,0,0,0-16.435,11.3,11.3,0,0,0-8.467-3.576Zm6.088,18.215a8.019,8.019,0,0,1-6.121,2.545h-.017a8.023,8.023,0,0,1-6.138-2.579,9.061,9.061,0,0,1-2.379-6.338,9.171,9.171,0,0,1,2.379-6.371,7.938,7.938,0,0,1,6.138-2.612h.017a7.945,7.945,0,0,1,6.121,2.6,9.183,9.183,0,0,1,2.379,6.388,9.031,9.031,0,0,1-2.379,6.371Z" transform="translate(0 -21.007)" fill="#1d1d1d"/>
    <path id="Path_10" data-name="Path 10" d="M667.671,432.761v-1.43h0a19.318,19.318,0,0,1-5.772-5.556c-2.579-4.941-3.261-9.864.2-14.805,6.454-7.286,10.962-4.458,15.187-.2a13.543,13.543,0,0,1,1.863,11.927c-1.165,3.959-3.161,6.853-5.955,8.633v1.414H685.12l1.947-4.458h0c-.183-1.015-.632-.882-1.531-.849h0l-1.464,2.029H680.58c1.031-1.5,2.062-3.011,3.077-4.525a16.957,16.957,0,0,0,.616-11.71c-2.845-9.215-14.455-11.678-21.858-8.035a13.331,13.331,0,0,0-7.718,12.559,17.7,17.7,0,0,0,5.422,11.71h-2.678l-2.462-2h0a.954.954,0,0,0-1.347.865h0l2.545,4.425h11.494Z" transform="translate(-24.508 0)" fill="#1d1d1d"/>
    <path id="Path_11" data-name="Path 11" d="M751.917,459.157l-.017-.033-10.813,23.139h3.394l2.845-6.088h9.166l2.845,6.088h3.41l-10.829-23.106Zm0,14.157h-3.494l3.477-6.937.017.034,3.476,6.9Z" transform="translate(-57.586 -21.007)" fill="#1d1d1d"/>
    <path id="Path_12" data-name="Path 12" d="M676.024,482.556h13.507v-2.861H679.168v-7.951h10.363v-2.861H679.168v-6.171h10.363V459.9H676.024v22.656Z" transform="translate(-32.977 -21.3)" fill="#1d1d1d"/>
    <path id="Path_13" data-name="Path 13" d="M713.817,473.147h8.1a7.13,7.13,0,0,1-2.445,4.84,7.7,7.7,0,0,1-5.289,1.9,7.976,7.976,0,0,1-6.139-2.579,9,9,0,0,1-2.4-6.338,9.114,9.114,0,0,1,2.4-6.371,7.891,7.891,0,0,1,6.139-2.612,8,8,0,0,1,3.41.666,9.084,9.084,0,0,1,2.745,1.979h0l2.379-1.9h0a13.535,13.535,0,0,0-3.859-2.695,11.228,11.228,0,0,0-4.641-.915,11.78,11.78,0,0,0-11.893,11.811,11.974,11.974,0,0,0,2.611,7.552,11.062,11.062,0,0,0,9.282,4.259q5.864,0,8.833-4.359a13.91,13.91,0,0,0,2.312-8.1H714.949l-1.132,2.861Z" transform="translate(-42.924 -21.007)" fill="#1d1d1d"/>
  </g>
</svg>
